Coordinates
version=1
nRows=17
nColumns=33
inDegrees=yes

Units are S.I. units (second, meters, Newtons, ...)
Angles are in degrees.

endheader
time	ground_thorax_rot_x	ground_thorax_rot_y	ground_thorax_rot_z	ground_thorax_tx	ground_thorax_ty	ground_thorax_tz	clav_prot_r	clav_elev_r	scapula_abduction_r	scapula_elevation_r	scapula_upward_rot_r	scapula_winging_r	shoulder_elv_r	plane_of_elev_r	axial_rot_r	elbow_flexion_r	pro_sup_r	wrist_flex_r	wrist_dev_r	clav_prot_l	clav_elev_l	scapula_abduction_l	scapula_elevation_l	scapula_upward_rot_l	scapula_winging_l	shoulder_elv_l	plane_of_elev_l	axial_rot_l	elbow_flexion_l	pro_sup_l	wrist_flex_l	wrist_dev_l
      2.56000000	    -34.64508577	     -4.19734099	     13.36840127	    -79.68452864	    775.94214692	     20.07163890	     -6.98389382	    -45.00000000	     45.00000000	    -45.00000000	     23.00900543	  -3708.61643489	  -1018.34784238	     20.61973302	   -179.99999979	   1805.89619907	   -110.40672117	     12.65689840	      9.13991909	     17.58093967	     36.10541493	    -45.00000000	    -36.63621808	    -29.66516206	    437.00140419	   -821.90781031	    136.13604971	    165.06089463	    369.55068770	     28.00726279	      8.13485434	    -17.10594132
      2.57000000	    -34.51578497	     -4.34033355	     13.39507542	    -79.43558761	    775.89984430	     20.20292385	     -7.28047666	    -45.00000000	     45.00000000	    -45.00000000	     22.69080941	  -3708.45188489	  -1018.28068941	     20.60488710	   -179.99999979	   1805.84636527	   -110.27659481	     12.62126840	      9.19373554	     17.88236151	     35.80958547	    -45.00000000	    -36.35885929	    -29.67544811	    437.04541484	   -821.91120622	    136.11357403	    165.14643612	    369.36841304	     27.93643271	      7.94312174	    -17.25806273
      2.58000000	    -34.68582505	     -4.44095393	     13.30493761	    -79.26023007	    775.86621094	     20.31210170	     -6.93130691	    -45.00000000	     45.00000000	    -45.00000000	     22.82402018	  -3708.69414870	  -1018.53854358	     20.64664056	   -179.99999979	   1805.95787340	   -110.09709979	     12.85705113	      9.15984208	     17.56473988	     35.90036721	    -45.00000000	    -36.52805965	    -29.66563391	    436.92712657	   -821.86646711	    136.11185246	    165.07477421	    369.42854347	     27.94811506	      8.24761193	    -17.11205116
      2.59000000	    -34.49046774	     -4.57336760	     13.25839662	    -79.16200137	    775.83243535	     20.39971330	     -7.30676009	    -45.00000000	     45.00000000	    -45.00000000	     22.71493401	  -3708.31280881	  -1018.35211697	     20.52872518	   -179.99999979	   1805.86130608	   -109.82795704	     12.65100394	      9.18448610	     17.82737468	     35.80413741	    -45.00000000	    -36.13732794	    -29.45021842	    437.10196569	   -821.92629882	    136.12727179	    165.24549356	    369.26296848	     27.84563142	      7.91728356	    -17.22283537
      2.60000000	    -34.49193910	     -4.62889947	     13.20529657	    -79.16164536	    775.83195583	     20.40055373	     -7.30063585	    -45.00000000	     45.00000000	    -45.00000000	     22.71105857	  -3708.34535925	  -1018.37444202	     20.49979893	   -179.99999979	   1805.87150623	   -109.82476623	     12.66137296	      9.18736303	     17.82267225	     35.80108243	    -45.00000000	    -36.09846890	    -29.45427501	    437.05290105	   -821.95155754	    136.09434959	    165.23528880	    369.27650436	     27.84604660	      7.92626564	    -17.22561371
      2.61000000	    -34.66493818	     -4.58168087	     13.02993736	    -79.16622381	    775.73765708	     20.52988231	     -6.95119952	    -45.00000000	     45.00000000	    -45.00000000	     22.88009894	  -3708.86448770	  -1018.78587172	     20.72758445	   -179.99999979	   1805.95631849	   -109.48513134	     13.24936343	      9.21011278	     17.49526814	     35.56584019	    -45.00000000	    -36.38530258	    -29.41934788	    436.83693029	   -821.92795731	    136.09085598	    164.96484194	    369.36783693	     27.86526612	      8.40405475	    -17.17835331
      2.62000000	    -34.56781976	     -4.71120214	     12.95615940	    -79.26193608	    775.65580935	     20.59266812	     -7.23919048	    -45.00000000	     45.00000000	    -45.00000000	     22.79111610	  -3708.44498186	  -1018.67769752	     20.42049281	   -179.99999979	   1805.74424227	   -108.98592951	     12.88518479	      9.17561443	     17.65123911	     35.61780976	    -45.00000000	    -36.19253573	    -29.28854941	    437.03882295	   -822.10628358	    136.07063744	    165.00620303	    369.24792207	     27.74646121	      8.07353750	    -17.20297779
      2.63000000	    -34.46209149	     -4.75484888	     13.02499885	    -79.41269873	    775.55764811	     20.64542596	     -7.07639112	    -45.00000000	     45.00000000	    -45.00000000	     22.91743052	  -3708.80826170	  -1018.62018111	     20.79444255	   -179.99999979	   1805.99622281	   -108.54478966	     13.23326911	      9.23732028	     17.51977828	     35.71620784	    -45.00000000	    -35.91518116	    -29.20124663	    436.96776035	   -821.92442909	    136.23270255	    164.93303045	    369.37909586	     27.69620630	      8.26110540	    -17.17174479
      2.64000000	    -34.42220011	     -4.84189229	     12.87389848	    -79.61780556	    775.44052898	     20.69312158	     -7.23553728	    -45.00000000	     45.00000000	    -45.00000000	     22.81824562	  -3708.48961605	  -1018.65526808	     20.53329062	   -179.99999979	   1805.75921571	   -108.03966637	     12.99820211	      9.19687069	     17.57486060	     35.66566941	    -45.00000000	    -35.96160683	    -29.18853476	    437.05692900	   -822.07711477	    136.15719861	    164.86791890	    369.25175663	     27.60433674	      8.11230934	    -17.17821204
      2.65000000	    -34.46117930	     -4.85829599	     12.89149148	    -79.86815591	    775.31327576	     20.73121801	     -7.08200658	    -45.00000000	     45.00000000	    -45.00000000	     22.91566971	  -3708.92207189	  -1018.77100973	     20.72629471	   -179.99999979	   1805.85793541	   -107.63375300	     13.37276423	      9.24789144	     17.49299013	     35.52746688	    -45.00000000	    -35.99490715	    -29.10739713	    437.04158353	   -822.10953925	    136.19350905	    164.80826926	    369.33142567	     27.55294145	      8.27270161	    -17.16375576
      2.66000000	    -34.28913393	     -4.90432695	     12.76934271	    -80.16504406	    775.18100600	     20.75757328	     -7.36370989	    -45.00000000	     45.00000000	    -45.00000000	     22.73866826	  -3708.28224091	  -1018.55577049	     20.41987632	   -179.99999979	   1805.64139828	   -107.21619794	     12.78890346	      9.12006467	     17.54490520	     35.73741653	    -45.00000000	    -35.80373343	    -29.11871937	    437.13205640	   -822.08540472	    136.13843796	    164.81022670	    369.26696472	     27.46173167	      8.05933301	    -17.15811866
      2.67000000	    -34.31241870	     -4.97309699	     12.79476896	    -80.51368289	    775.04403394	     20.77353038	     -7.12076230	    -45.00000000	     45.00000000	    -45.00000000	     22.83152076	  -3708.78917452	  -1018.70468243	     20.75445359	   -179.99999979	   1805.79564221	   -106.78566822	     13.30511253	      9.23914656	     17.49128390	     35.62040276	    -45.00000000	    -35.89060028	    -29.17671794	    437.00996137	   -822.09693264	    136.24292811	    164.72054405	    369.25530309	     27.41147947	      8.27609446	    -17.15258531
      2.68000000	    -34.33882458	     -5.01977979	     12.77211599	    -80.90079830	    774.90958756	     20.77985103	     -7.20976529	    -45.00000000	     45.00000000	    -45.00000000	     22.77893601	  -3708.70841524	  -1018.71284608	     20.55819322	   -179.99999979	   1805.67837431	   -106.44223864	     13.19548595	      9.24357469	     17.51408955	     35.57665761	    -45.00000000	    -35.93778042	    -29.12103039	    437.18054826	   -822.22040827	    136.11200047	    164.79774690	    369.22292676	     27.31685574	      8.15934309	    -17.13005794
      2.69000000	    -34.35476304	     -5.00129031	     12.81030613	    -81.32800247	    774.77846463	     20.77846825	     -7.09711567	    -45.00000000	     45.00000000	    -45.00000000	     22.80874367	  -3708.99528194	  -1018.75594910	     20.68537725	   -179.99999979	   1805.78161354	   -106.16708155	     13.42652037	      9.28709770	     17.46015391	     35.61931591	    -45.00000000	    -35.87884379	    -29.14601642	    437.08182905	   -822.05028737	    136.25398159	    164.78649312	    369.41046723	     27.24268996	      8.28971164	    -17.19881902
      2.70000000	    -34.34460933	     -5.08474020	     12.77171851	    -81.78562930	    774.65623116	     20.77069491	     -7.24545143	    -45.00000000	     45.00000000	    -45.00000000	     22.67549867	  -3708.73364455	  -1018.66234235	     20.45261448	   -179.99999979	   1805.58078253	   -105.94118320	     13.11132933	      9.22906980	     17.54922906	     35.59439341	    -45.00000000	    -36.04643599	    -29.13313204	    437.33340711	   -822.36433002	    135.99005223	    164.91096545	    369.22997115	     27.14544329	      8.11059878	    -17.09570851
      2.71000000	    -34.36155465	     -5.07191839	     12.79467056	    -82.28065104	    774.54308789	     20.75872886	     -7.05604492	    -45.00000000	     45.00000000	    -45.00000000	     22.72400418	  -3709.07315031	  -1018.67199412	     20.73668047	   -179.99999979	   1805.74902337	   -105.77654353	     13.47256133	      9.32452007	     17.47100480	     35.61430476	    -45.00000000	    -36.05857709	    -29.30922831	    437.03446742	   -822.07936413	    136.23950296	    164.85416159	    369.30990705	     27.06931172	      8.35247051	    -17.19184137
      2.72000000	    -34.33216212	     -5.15745344	     12.79834261	    -82.80226476	    774.44463011	     20.74509908	     -7.22128466	    -45.00000000	     45.00000000	    -45.00000000	     22.60903785	  -3708.86732005	  -1018.67592809	     20.42279540	   -179.99999979	   1805.64627528	   -105.66623699	     13.10501019	      9.27809520	     17.59630293	     35.77884446	    -45.00000000	    -35.93328035	    -29.31716308	    437.45622536	   -822.28068977	    135.98104083	    165.11929036	    369.30278817	     26.91693272	      8.09291131	    -17.09247056
